<?xml version="1.0" encoding="UTF-8"?>
<svg id="_레이어_2" data-name="레이어_2" xmlns="http://www.w3.org/2000/svg" viewBox="0 0 226.91 111.34">
  <defs>
    <style>
      .cls-1 {
        fill: #f08300;
      }

      .cls-2 {
        fill: #fabe00;
      }

      .cls-3 {
        fill: #0093d4;
      }

      .cls-4 {
        fill: #898989;
      }
    </style>
  </defs>
  <g id="_레이어_1-2" data-name="레이어_1">
    <g>
      <g>
        <path class="cls-4" d="M43.95,102.19v7.41c-.07.03-.16.05-.29.08-.13.02-.27.04-.41.04-.3,0-.51-.06-.63-.16-.12-.11-.19-.29-.19-.55v-6.81h-2.54c-.05-.07-.09-.15-.12-.26-.03-.1-.05-.22-.05-.36,0-.21.05-.37.15-.48.1-.11.24-.16.41-.16h6.24c.04.06.07.14.11.24.03.11.05.22.05.34,0,.45-.19.67-.56.67h-2.17Z"/>
        <path class="cls-4" d="M55.87,105.27c0,.75-.11,1.4-.32,1.97-.22.57-.51,1.04-.9,1.43-.38.38-.83.67-1.35.87-.52.2-1.08.29-1.69.29s-1.18-.1-1.7-.29c-.52-.2-.97-.49-1.35-.87-.38-.38-.67-.86-.89-1.43-.22-.57-.32-1.23-.32-1.97s.11-1.4.33-1.96c.22-.56.52-1.04.9-1.43.38-.39.83-.68,1.36-.87.52-.2,1.08-.29,1.67-.29s1.16.1,1.68.29c.52.2.97.49,1.35.87.38.39.68.86.9,1.43.22.56.33,1.22.33,1.96ZM54.31,105.27c0-1.07-.24-1.89-.73-2.45-.49-.56-1.14-.84-1.96-.84s-1.45.28-1.94.85c-.49.56-.74,1.38-.74,2.44s.24,1.89.73,2.45c.49.56,1.14.85,1.95.85s1.48-.28,1.96-.85c.49-.56.73-1.38.73-2.45Z"/>
        <path class="cls-4" d="M64.94,108.53c0,.2-.05.37-.15.49-.1.13-.26.25-.47.35-.25.13-.59.24-1.03.33-.44.09-.89.13-1.35.13-.68,0-1.3-.09-1.87-.27-.57-.18-1.06-.45-1.47-.82-.41-.37-.73-.85-.96-1.42-.23-.57-.34-1.25-.34-2.04s.12-1.43.36-2.01c.24-.57.56-1.05.97-1.43.41-.38.88-.66,1.43-.85.55-.19,1.14-.29,1.76-.29.41,0,.79.04,1.13.11s.64.16.89.28c.25.11.44.25.57.39.13.15.2.3.2.47s-.04.3-.13.42c-.09.12-.19.21-.32.28-.26-.16-.56-.32-.92-.46-.35-.14-.8-.22-1.33-.22-.43,0-.83.07-1.2.22-.37.14-.7.35-.97.63-.27.28-.49.62-.64,1.03-.15.41-.23.88-.23,1.42,0,.56.08,1.05.24,1.47.16.42.37.76.65,1.03.27.27.6.47.98.6.38.13.79.19,1.23.19.31,0,.59-.03.86-.08.27-.05.47-.12.62-.19v-2.29h-1.98c-.05-.06-.09-.14-.12-.25-.03-.11-.05-.22-.05-.34,0-.22.05-.38.15-.49.1-.11.24-.16.41-.16h2.41c.2,0,.37.06.49.18.13.12.19.29.19.51v3.07Z"/>
        <path class="cls-4" d="M67.26,109.42c-.15-.15-.23-.35-.23-.6v-7.07c0-.25.08-.45.23-.6.15-.15.35-.22.6-.22h4.75c.05.06.09.14.12.24.03.11.05.22.05.34,0,.21-.05.37-.15.49-.1.11-.24.17-.41.17h-3.67v2.38h3.63c.05.06.09.14.12.24.03.11.05.22.05.34,0,.22-.05.38-.15.49-.1.11-.24.16-.41.16h-3.24v2.61h4.13c.04.06.08.14.11.24.04.11.06.22.06.34,0,.22-.05.39-.15.49s-.24.16-.41.16h-4.43c-.25,0-.45-.08-.6-.23Z"/>
        <path class="cls-4" d="M78.1,102.19v7.41c-.07.03-.16.05-.29.08-.13.02-.27.04-.41.04-.3,0-.51-.06-.63-.16s-.19-.29-.19-.55v-6.81h-2.54c-.05-.07-.09-.15-.12-.26-.03-.1-.05-.22-.05-.36,0-.21.05-.37.15-.48.1-.11.24-.16.41-.16h6.24c.04.06.07.14.11.24.03.11.05.22.05.34,0,.45-.19.67-.56.67h-2.17Z"/>
        <path class="cls-4" d="M88.2,100.86c.13-.02.27-.04.42-.04.28,0,.49.05.62.16.14.11.21.29.21.56v8.06c-.08.03-.18.05-.31.08-.13.02-.27.04-.41.04-.3,0-.51-.06-.64-.16-.13-.11-.19-.29-.19-.55v-3.14h-4v3.74c-.08.03-.18.05-.3.08-.12.02-.26.04-.42.04-.3,0-.51-.06-.64-.16-.13-.11-.19-.29-.19-.55v-8.07c.08-.02.18-.04.31-.06.13-.02.27-.04.41-.04.28,0,.49.05.62.16.14.11.21.29.21.56v3.07h4v-3.69c.07-.02.17-.04.3-.06Z"/>
        <path class="cls-4" d="M92.03,109.42c-.15-.15-.23-.35-.23-.6v-7.07c0-.25.08-.45.23-.6s.35-.22.6-.22h4.75c.05.06.09.14.12.24.03.11.05.22.05.34,0,.21-.05.37-.15.49-.1.11-.24.17-.41.17h-3.67v2.38h3.63c.05.06.09.14.12.24s.05.22.05.34c0,.22-.05.38-.15.49s-.24.16-.41.16h-3.24v2.61h4.13c.04.06.08.14.11.24.04.11.06.22.06.34,0,.22-.05.39-.15.49-.1.11-.24.16-.41.16h-4.43c-.25,0-.45-.08-.6-.23Z"/>
        <path class="cls-4" d="M101.04,109.6c-.08.03-.18.05-.3.08-.12.02-.26.04-.42.04-.3,0-.51-.06-.64-.16-.13-.11-.19-.29-.19-.55v-7.4c0-.16.05-.29.14-.38.09-.09.22-.16.38-.21.3-.11.65-.18,1.06-.22.41-.04.82-.06,1.23-.06,1.24,0,2.17.25,2.78.75.61.5.91,1.21.91,2.12,0,.63-.16,1.17-.49,1.61-.33.44-.8.78-1.41,1,.23.29.45.57.67.85.22.28.43.55.62.8.2.25.37.48.53.69s.28.38.38.51c-.05.22-.15.39-.32.5-.16.11-.34.17-.53.17-.23,0-.41-.06-.54-.16-.13-.11-.27-.26-.4-.45l-1.85-2.67h-1.61v3.14ZM102.41,105.23c.62,0,1.11-.13,1.48-.4.36-.27.54-.67.54-1.22s-.18-.94-.55-1.2c-.37-.27-.91-.4-1.63-.4-.22,0-.44,0-.65.03-.22.02-.41.04-.58.07v3.13h1.39Z"/>
        <path class="cls-4" d="M108.34,110.89c-.11.15-.21.27-.32.34-.11.07-.25.11-.41.11-.27,0-.49-.09-.67-.27.08-.21.16-.45.24-.71.08-.26.16-.53.24-.8.08-.27.15-.54.22-.8.07-.26.12-.5.16-.71.1-.05.22-.09.34-.13.12-.04.26-.06.4-.06.2,0,.37.05.5.14.13.1.2.26.2.5,0,.17-.03.37-.09.6-.06.23-.14.46-.23.68-.09.22-.19.44-.29.64-.1.2-.19.36-.28.47Z"/>
        <path class="cls-4" d="M118.42,107.45h-3.5l-.7,2.19c-.09.04-.18.07-.27.09-.1.02-.21.03-.34.03-.24,0-.44-.05-.59-.16-.15-.1-.23-.26-.23-.47,0-.1.01-.21.04-.31.03-.1.07-.21.11-.34.12-.4.3-.92.52-1.56.22-.64.46-1.31.72-2.02.25-.71.51-1.4.77-2.09.26-.68.48-1.27.67-1.76.1-.06.24-.11.44-.16.2-.05.41-.08.62-.08.28,0,.53.04.75.11.22.08.37.21.44.4.21.55.44,1.16.69,1.86.25.69.5,1.41.75,2.14s.49,1.46.72,2.17c.23.71.43,1.35.62,1.92-.09.1-.2.17-.34.24-.14.06-.3.09-.49.09-.26,0-.44-.05-.56-.15-.11-.1-.21-.27-.29-.51l-.55-1.65ZM116.67,102.16c-.1.26-.2.55-.32.87-.11.33-.23.67-.36,1.03-.12.36-.25.72-.37,1.09-.12.37-.24.72-.36,1.07h2.83c-.12-.38-.25-.77-.38-1.15-.13-.39-.25-.76-.37-1.11-.12-.35-.23-.69-.34-1-.11-.31-.19-.58-.26-.8h-.07Z"/>
        <path class="cls-4" d="M122.42,109.42c-.15-.15-.23-.35-.23-.6v-7.89c.08-.02.18-.04.31-.06.13-.02.27-.04.41-.04.28,0,.49.05.62.16.14.11.21.29.21.56v6.81h3.89c.05.07.09.15.13.26.04.11.06.22.06.36,0,.22-.05.39-.16.5-.11.11-.24.17-.42.17h-4.22c-.25,0-.45-.08-.6-.23Z"/>
        <path class="cls-4" d="M129.65,109.42c-.15-.15-.23-.35-.23-.6v-7.89c.08-.02.18-.04.31-.06.13-.02.27-.04.41-.04.28,0,.49.05.62.16.14.11.21.29.21.56v6.81h3.89c.05.07.09.15.13.26.04.11.06.22.06.36,0,.22-.05.39-.16.5-.11.11-.24.17-.42.17h-4.22c-.25,0-.45-.08-.6-.23Z"/>
        <path class="cls-4" d="M140.77,109.68c-.13.02-.27.04-.41.04-.3,0-.51-.06-.64-.16s-.19-.29-.19-.55v-8.07c.08-.02.18-.04.31-.06.13-.02.27-.04.41-.04.28,0,.48.05.62.16.13.11.2.29.2.56v8.06c-.07.03-.16.05-.29.08Z"/>
        <path class="cls-4" d="M145.93,108.57c.6,0,1.05-.12,1.33-.37.29-.25.43-.57.43-.96,0-.34-.11-.62-.33-.83-.22-.21-.57-.39-1.05-.53l-1.08-.33c-.33-.1-.64-.23-.91-.37-.27-.14-.5-.3-.7-.49-.19-.19-.34-.41-.44-.66-.1-.25-.15-.55-.15-.88,0-.76.28-1.35.84-1.79.56-.44,1.32-.65,2.27-.65.39,0,.76.03,1.09.09.33.06.62.15.87.26.24.11.44.24.57.39.14.15.21.31.21.48,0,.16-.04.3-.12.42s-.18.22-.29.29c-.24-.18-.55-.34-.94-.47-.39-.13-.82-.19-1.28-.19-.53,0-.93.11-1.22.32-.29.21-.43.49-.43.85,0,.29.1.52.3.7.2.18.53.33.99.47l.83.24c.8.24,1.43.57,1.87.98.44.42.67.98.67,1.7,0,.38-.07.73-.22,1.05-.15.32-.36.6-.64.82-.28.23-.62.41-1.04.53-.42.12-.89.19-1.41.19-.44,0-.84-.04-1.2-.11-.36-.08-.68-.18-.94-.3-.26-.12-.47-.27-.61-.43-.14-.16-.22-.33-.22-.52,0-.19.06-.35.17-.49.11-.13.25-.23.4-.3.23.21.54.41.94.6.4.19.87.29,1.43.29Z"/>
        <path class="cls-4" d="M157.85,103.08c.09-.05.2-.09.34-.12.14-.03.29-.05.45-.05.53,0,.84.15.95.46.15.49.3.94.44,1.36.14.42.27.83.39,1.23.12.4.25.79.37,1.17.12.38.24.78.35,1.19h.07c.12-.63.24-1.24.35-1.84.11-.59.22-1.19.33-1.78.11-.59.21-1.19.31-1.8.1-.61.19-1.24.29-1.9.18-.11.4-.16.66-.16.23,0,.42.05.57.15.15.1.22.26.22.48,0,.19-.03.48-.08.85-.05.38-.12.81-.2,1.29-.08.48-.18,1-.29,1.54-.11.55-.23,1.08-.36,1.61-.12.53-.25,1.02-.38,1.48-.13.46-.25.85-.37,1.17-.11.08-.25.14-.44.19-.19.05-.39.08-.61.08-.28,0-.51-.04-.7-.12-.19-.08-.31-.19-.36-.34-.09-.23-.19-.51-.31-.85-.12-.34-.24-.71-.37-1.1-.13-.4-.26-.82-.39-1.25-.13-.44-.26-.88-.38-1.32-.11.43-.24.87-.37,1.33-.13.45-.27.89-.39,1.31-.13.42-.25.81-.37,1.18-.12.36-.23.67-.32.92-.1.07-.23.13-.41.18-.18.05-.38.08-.6.08-.28,0-.51-.04-.71-.13-.2-.09-.32-.2-.38-.33-.09-.19-.18-.47-.29-.83-.11-.36-.22-.78-.34-1.24-.12-.46-.24-.96-.37-1.49-.12-.53-.24-1.06-.35-1.59-.11-.53-.21-1.04-.31-1.54-.1-.5-.17-.95-.23-1.35.09-.09.2-.16.35-.24.15-.07.31-.11.48-.11.45,0,.72.22.8.67.12.68.24,1.31.36,1.89.11.58.22,1.15.33,1.69.1.54.21,1.07.32,1.6.11.53.22,1.07.34,1.62h.06c.12-.42.24-.82.35-1.18.11-.37.22-.75.34-1.15.12-.4.25-.83.39-1.29.14-.46.29-1,.47-1.61Z"/>
        <path class="cls-4" d="M165.91,109.42c-.15-.15-.23-.35-.23-.6v-7.07c0-.25.08-.45.23-.6.15-.15.35-.22.6-.22h4.75c.05.06.09.14.12.24.03.11.05.22.05.34,0,.21-.05.37-.15.49-.1.11-.24.17-.41.17h-3.67v2.38h3.63c.05.06.09.14.12.24.03.11.05.22.05.34,0,.22-.05.38-.15.49s-.24.16-.41.16h-3.24v2.61h4.13c.04.06.08.14.11.24.04.11.06.22.06.34,0,.22-.05.39-.15.49-.1.11-.24.16-.41.16h-4.43c-.25,0-.45-.08-.6-.23Z"/>
        <path class="cls-4" d="M173.59,109.42c-.15-.15-.23-.35-.23-.6v-7.89c.08-.02.18-.04.31-.06.13-.02.27-.04.41-.04.28,0,.49.05.62.16.14.11.21.29.21.56v6.81h3.89c.05.07.09.15.13.26.04.11.06.22.06.36,0,.22-.05.39-.16.5-.11.11-.24.17-.42.17h-4.22c-.25,0-.45-.08-.6-.23Z"/>
        <path class="cls-4" d="M180.82,109.42c-.15-.15-.23-.35-.23-.6v-7.89c.08-.02.18-.04.31-.06.13-.02.27-.04.41-.04.28,0,.49.05.62.16.14.11.21.29.21.56v6.81h3.89c.05.07.09.15.13.26.04.11.06.22.06.36,0,.22-.05.39-.16.5-.11.11-.24.17-.42.17h-4.22c-.25,0-.45-.08-.6-.23Z"/>
      </g>
      <g>
        <path class="cls-2" d="M177.53,55.83c-.49-.79-.73-2.65-.73-3.62s.24-2.36.73-3.17c.49-.81,1.19-1.22,2.12-1.22h12.16c1.53,0,2.86-.29,3.99-.87,1.13-.58,2.08-1.33,2.85-2.26.76-.93,1.34-2.01,1.74-3.24.39-1.23.59-2.96.59-4.21s-.2-3.47-.59-4.7c-.39-1.23-.97-2.32-1.74-3.27-.76-.95-1.71-1.72-2.85-2.3-1.14-.58-2.47-.87-3.99-.87h-17.99c-1.07,0-1.88.35-2.43,1.05-.56.7-.83,1.45-.83,2.25,0,.84.28,1.6.83,2.28.56.68,1.37,1.02,2.43,1.02h16.88c.93,0,1.62.39,2.08,1.16.46.77.69,2.6.69,3.53s-.23,2.28-.69,3.05c-.46.77-1.16,1.16-2.08,1.16h-12.29c-1.53,0-2.87.29-4.03.87-1.16.58-2.12,1.35-2.88,2.32-.76.97-1.33,2.08-1.7,3.32-.37,1.25-.56,3-.56,4.3,0,.56.03,1.3.1,2.06,2.74.74,5.52,1.29,8.39,1.66-.07-.09-.13-.18-.19-.28Z"/>
        <path class="cls-2" d="M85.29,59.45v25.5c0,1.74-.42,3.02-1.25,3.86-.83.84-1.74,1.26-2.71,1.26s-1.93-.42-2.74-1.26c-.81-.84-1.22-2.13-1.22-3.86v-25.5h7.92Z"/>
        <path class="cls-2" d="M93.59,36.47c0-1.34-.32-2.27-.97-2.78-.65-.51-1.46-.76-2.43-.76h-25.63c-1.2,0-2.08-.35-2.64-1.04-.56-.69-.83-1.5-.83-2.43,0-.79.28-1.53.83-2.22.56-.69,1.43-1.04,2.64-1.04h26.46c2.96,0,5.43.86,7.4,2.57,1.97,1.71,2.95,4.21,2.95,7.5,0,2.41-.15,2.78-.45,5.03-.3,2.25-.71,4.48-1.22,6.7-.23.97-.72,1.69-1.46,2.15-.74.46-1.51.69-2.29.69-1.11,0-2.07-.39-2.88-1.18-.81-.79-1.08-1.92-.8-3.4.37-1.85.68-3.75.94-5.7.25-1.95.38-2.01.38-4.09Z"/>
        <path class="cls-2" d="M131.16,58.23v-8.42h-5.7c-2.96,0-5.35-.83-7.15-2.49-1.81-1.66-2.71-4.16-2.71-7.48v-6.51c0-2.36.58-4.14,1.75-5.37,1.17-1.22,3.01-1.84,5.54-1.84h28.21c1.06,0,1.88.34,2.43,1.03.56.69.83,1.44.83,2.27s-.28,1.58-.83,2.27c-.56.69-1.37,1.03-2.43,1.03h-25.49c-1.48,0-2.22.72-2.22,2.15v4.79c0,1.2.3,2.1.9,2.67.6.58,1.43.87,2.49.87h24.74c1.06,0,1.86.35,2.4,1.04.53.69.8,1.46.8,2.29s-.27,1.59-.8,2.26c-.53.67-1.33,1.01-2.4,1.01h-12.43v8.42h-7.92Z"/>
        <path class="cls-2" d="M25.31,57.5v-7.69h-5.7c-2.96,0-5.35-.83-7.15-2.49-1.81-1.66-2.71-4.16-2.71-7.48v-6.51c0-2.36.58-4.14,1.75-5.37,1.17-1.22,3.01-1.84,5.54-1.84h28.21c1.06,0,1.88.34,2.43,1.03.56.69.83,1.44.83,2.27s-.28,1.58-.83,2.27c-.56.69-1.37,1.03-2.43,1.03h-25.49c-1.48,0-2.22.72-2.22,2.15v4.79c0,1.2.3,2.1.9,2.67.6.58,1.43.87,2.49.87h24.74c1.06,0,1.86.35,2.4,1.04.53.69.8,1.46.8,2.29s-.27,1.59-.8,2.26c-.53.67-1.33,1.01-2.4,1.01h-12.43v7.69h-7.92Z"/>
        <path class="cls-2" d="M216.29,54.31c0,1.3-.41,2.27-1.22,2.92-.81.65-1.7.97-2.67.97s-1.86-.32-2.67-.97c-.81-.65-1.22-1.62-1.22-2.92v-24.92c0-1.3.4-2.27,1.22-2.92.81-.65,1.7-.97,2.67-.97s1.86.33,2.67.98c.81.65,1.22,1.63,1.22,2.93v11.72h7.29c1.11,0,1.94.34,2.5,1.03.56.69.83,1.44.83,2.27s-.28,1.58-.83,2.27c-.56.69-1.39,1.03-2.5,1.03h-7.29v6.58Z"/>
        <path class="cls-2" d="M179.89,73.22c-1.16,0-2.01-.34-2.57-1.03-.56-.69-.83-1.44-.83-2.27s.28-1.58.83-2.27c.56-.69,1.41-1.03,2.57-1.03h26.53c2.96,0,5.43.9,7.4,2.7,1.97,1.8,2.95,4.36,2.95,7.69v8.73c0,1.29-.41,2.26-1.22,2.91-.81.65-1.7.97-2.67.97s-1.86-.32-2.67-.97c-.81-.65-1.22-1.62-1.22-2.92v-8.47c0-1.34-.32-2.35-.97-3.02-.65-.67-1.46-1.01-2.43-1.01h-25.7Z"/>
        <path class="cls-2" d="M29.55,57.93c-10.17,0-18.41,7.43-18.41,16.58s8.24,16.58,18.41,16.58,18.41-7.43,18.41-16.58-8.24-16.58-18.41-16.58ZM29.49,84.45c-5.93,0-10.73-4.7-10.73-10.49s4.8-10.49,10.73-10.49,10.73,4.7,10.73,10.49-4.8,10.49-10.73,10.49Z"/>
        <path class="cls-2" d="M135.4,57.93c-10.17,0-18.41,7.43-18.41,16.58s8.24,16.58,18.41,16.58,18.41-7.43,18.41-16.58-8.24-16.58-18.41-16.58ZM135.34,84.45c-5.93,0-10.73-4.7-10.73-10.49s4.8-10.49,10.73-10.49,10.73,4.7,10.73,10.49-4.8,10.49-10.73,10.49Z"/>
        <path class="cls-1" d="M216.47,53.37c-.42-.93-1.17-1.63-2.12-1.98-.96-.35-2-.31-2.94.12-8.45,3.04-16.62,4.57-24.29,4.57-3.2,0-6.33-.2-9.32-.59-2.81-.37-5.61-.92-8.31-1.65-2.3-.62-4.59-1.37-6.82-2.25-.1-.06-.21-.11-.32-.16-.41-.18-.85-.29-1.32-.33-.05,0-.11,0-.16-.01h-.05c-.6-.02-1.19.1-1.73.35-8.45,3.04-16.62,4.57-24.29,4.57-8.89,0-16.66-1.42-24.45-4.48-.1-.06-.21-.11-.32-.16-.1-.05-.2-.08-.28-.11h-.04s-.1-.05-.14-.06h-.02c-.08-.03-.16-.05-.27-.08-.49-.11-.99-.13-1.48-.04-.02,0-.04,0-.08.02-.08.02-.16.03-.24.05-.26.06-.5.15-.74.26-8.43,3.02-16.58,4.55-24.22,4.55-8.89,0-16.66-1.42-24.45-4.48-.05-.03-.1-.05-.15-.08l-.05-.03s-.04-.02-.06-.03l-.05-.02s-.06-.02-.1-.04c-.08-.03-.16-.07-.24-.09-.02,0-.05-.01-.08-.03-.09-.03-.19-.06-.28-.08-.03,0-.06-.01-.09-.02h-.03c-.08-.02-.16-.04-.23-.05-.07,0-.14-.02-.22-.02h-.03s-.06,0-.09,0c-.7-.04-1.39.11-2.01.43-8.38,2.99-16.48,4.5-24.08,4.5-8.89,0-16.66-1.42-24.45-4.48-.1-.06-.21-.11-.32-.16-1.95-.87-4.26-.02-5.14,1.89-.43.92-.47,1.95-.11,2.9.3.81.86,1.48,1.59,1.93l-.03.07.59.24c8.42,3.46,18.84,5.53,27.88,5.53s17.5-1.65,25.87-4.9c8.22,3.14,17.82,4.94,26.38,4.94s17.5-1.65,25.87-4.9c8.23,3.15,17.84,4.95,26.41,4.95s17.52-1.65,25.89-4.91c3.76,1.44,7.99,2.65,12.25,3.49,4.88.97,9.65,1.46,14.17,1.46,4.94,0,9.91-.53,14.76-1.57,4.15-.89,8.27-2.16,12.25-3.78.15-.05.29-.11.41-.16,1.93-.91,2.79-3.21,1.93-5.13Z"/>
      </g>
      <g>
        <path class="cls-3" d="M49.75,12.03c-1.18.2-2.33.33-3.45.4-1.16.07-2.27.11-3.39.11h-1.3V1.97h7.26v1.19h-5.74v8.18h.52c.92,0,1.87-.04,2.87-.11,1-.07,1.97-.18,2.95-.34l.28,1.14ZM52.41,6.57h2.29V.2h1.46v16.43h-1.46V7.75h-2.29v8.05h-1.46V.56h1.46v6.01Z"/>
        <path class="cls-3" d="M67.89,1.28v1.19h-3.99v1.09c0,.62.12,1.18.4,1.66.24.51.58.96,1.02,1.34.4.4.88.74,1.42,1.01.52.29,1.04.51,1.58.65l-.7,1.05c-.36-.07-.76-.22-1.16-.42-.42-.18-.82-.42-1.22-.71-.4-.27-.78-.6-1.14-.98-.36-.36-.68-.76-.92-1.21-.22.47-.5.89-.82,1.27-.36.4-.74.74-1.14,1.05-.42.33-.86.6-1.32.83-.48.25-.96.47-1.44.63l-.72-.94c.66-.25,1.28-.54,1.86-.89.56-.33,1.04-.72,1.46-1.16.4-.42.74-.89.98-1.41.22-.51.34-1.09.34-1.72v-1.16h-4.01v-1.19h9.51ZM61.1,16.4v-5.45h1.52v4.27h10.67v1.18h-12.19ZM71.4,4.38V.2h1.5v12.09h-1.5v-6.71h-3.69v-1.19h3.69Z"/>
        <path class="cls-3" d="M93.32,6.26h-5.35v1.88h7.56v1.18h-16.68v-1.18h7.6v-1.88h-5.21V.67h11.87v1.18h-10.35v3.24h10.55v1.18ZM80.87,13.74c0-1.01.56-1.77,1.7-2.28,1.12-.49,2.67-.74,4.67-.74s3.55.25,4.69.74c1.12.51,1.68,1.27,1.68,2.28s-.56,1.77-1.68,2.28c-1.14.49-2.69.74-4.69.74s-3.55-.25-4.67-.74c-1.14-.51-1.7-1.27-1.7-2.28ZM92.1,13.74c0-.33-.12-.62-.34-.87-.24-.24-.58-.43-1-.58-.44-.14-.96-.25-1.56-.33-.6-.05-1.26-.09-1.97-.09s-1.38.04-1.97.09c-.6.07-1.12.18-1.54.33-.44.14-.78.34-1,.58-.24.25-.36.54-.36.87,0,.34.12.63.36.89.22.22.56.42,1,.56.42.14.94.25,1.54.33.6.05,1.26.09,1.97.09s1.38-.04,1.97-.09c.6-.07,1.12-.18,1.56-.33.42-.14.76-.34,1-.56.22-.25.34-.54.34-.89Z"/>
        <path class="cls-3" d="M103.57,16.67v-5.81h-7.56v-1.18h16.68v1.18h-7.6v5.81h-1.52ZM98.21,1.1h12.17v1.41c0,.43-.02.9-.04,1.38-.04.51-.1,1-.14,1.5l-.24,1.48c-.1.51-.2.96-.32,1.39l-1.44-.27c.08-.36.18-.78.26-1.23.08-.43.14-.89.22-1.36l.12-1.36c.02-.43.04-.83.04-1.19v-.6h-10.63v-1.16Z"/>
        <path class="cls-3" d="M127.61,2.99v1.83h-3.69c.12.47.32.89.6,1.25.28.38.6.71,1,1,.38.29.8.54,1.28.74.46.22.94.38,1.42.49l-1.14,1.63c-.8-.18-1.58-.51-2.33-.98-.78-.47-1.48-1.1-2.07-1.92-.56.8-1.24,1.48-2.03,2.04-.84.58-1.74,1.03-2.73,1.38l-1.14-1.54c1.2-.45,2.21-1.01,3.03-1.66.8-.63,1.28-1.45,1.48-2.43h-3.73v-1.83h10.07ZM125.62.51v1.83h-6.08V.51h6.08ZM119.59,13.65c0-1.05.56-1.86,1.72-2.44,1.12-.58,2.77-.87,4.93-.87s3.79.29,4.95.87c1.12.58,1.7,1.39,1.7,2.44s-.58,1.86-1.7,2.44c-1.16.58-2.79.87-4.95.87s-3.81-.29-4.93-.87c-1.16-.58-1.72-1.39-1.72-2.44ZM130.42,13.65c0-.54-.38-.92-1.1-1.16-.76-.22-1.78-.34-3.09-.34s-2.35.13-3.07.34c-.76.24-1.12.62-1.12,1.16s.36.92,1.12,1.16c.72.22,1.76.34,3.07.34s2.33-.13,3.09-.34c.72-.24,1.1-.62,1.1-1.16ZM130.36,5.48V0h2.45v10.17h-2.45v-2.84h-3.11v-1.85h3.11Z"/>
        <path class="cls-3" d="M145.76,8.7c-1.58.31-3.17.52-4.79.65-1.64.14-3.21.22-4.73.22h-1.22V1h2.47v6.73c1.22-.02,2.51-.11,3.87-.25,1.36-.13,2.67-.31,3.97-.54l.42,1.77ZM137.43,16.6v-5.85h2.47v4.02h10.37v1.83h-12.85ZM147.52,1.83V0h2.45v12.49h-2.45v-6.21h-4.79v-1.81h4.79v-.83h-4.79v-1.81h4.79Z"/>
        <path class="cls-3" d="M151.19,9.28v-1.83h6.6v-3.17h2.47v3.17h8.16v1.83h-17.23ZM153.2,13.65c0-1.05.56-1.86,1.72-2.44,1.12-.58,2.77-.87,4.93-.87s3.79.29,4.95.87c1.12.58,1.7,1.39,1.7,2.44s-.58,1.86-1.7,2.44c-1.16.58-2.79.87-4.95.87s-3.81-.29-4.93-.87c-1.16-.58-1.72-1.39-1.72-2.44ZM153.38.56h12.73v.71c0,.9-.08,1.81-.2,2.75-.16.94-.36,1.9-.64,2.86l-2.37-.42c.38-1.38.62-2.73.7-4.09h-10.21V.56ZM164.04,13.65c0-.52-.38-.9-1.1-1.16-.76-.22-1.78-.34-3.09-.34s-2.35.13-3.07.34c-.76.25-1.12.63-1.12,1.16s.36.9,1.12,1.16c.72.22,1.76.34,3.07.34s2.33-.13,3.09-.34c.72-.25,1.1-.63,1.1-1.16Z"/>
        <path class="cls-3" d="M169.12,1.09h9.02v.43c0,.98-.22,1.9-.62,2.77-.44.89-1.02,1.68-1.78,2.41-.78.74-1.7,1.39-2.77,1.97-1.1.58-2.29,1.07-3.61,1.45l-1.08-1.59c.92-.25,1.8-.58,2.61-.98.8-.38,1.52-.81,2.15-1.32.62-.47,1.14-1,1.58-1.57.42-.54.72-1.12.9-1.74h-6.4v-1.83ZM170.94,16.6v-5.85h2.47v4.02h10.17v1.83h-12.65ZM183.29,4.81h2.83v1.83h-2.83v5.85h-2.45V0h2.45v4.81Z"/>
      </g>
    </g>
  </g>
</svg>