<?xml version="1.0" encoding="utf-8"?>
<!-- Generator: Adobe Illustrator 16.0.0, SVG Export Plug-In . SVG Version: 6.00 Build 0)  -->
<!DOCTYPE svg PUBLIC "-//W3C//DTD SVG 1.1//EN" "http://www.w3.org/Graphics/SVG/1.1/DTD/svg11.dtd">
<svg version="1.1" id="Layer_1" xmlns="http://www.w3.org/2000/svg" xmlns:xlink="http://www.w3.org/1999/xlink" x="0px" y="0px"
	 width="209px" height="61px" viewBox="0 0 209 61" enable-background="new 0 0 209 61" xml:space="preserve">
<g>
	<polygon fill="#016BAF" points="40.745,19.985 36.488,24.168 24.451,12.792 24.304,16.388 19.679,15.511 21.074,1.709 	"/>
	<polygon fill="#088141" points="20.707,22.04 24.891,26.297 13.514,38.334 17.111,38.482 16.232,43.105 2.431,41.71 	"/>
	<polygon fill="#F69022" points="22.616,41.857 26.873,37.674 38.91,49.05 39.057,45.453 43.681,46.331 42.287,60.134 	"/>
	<polygon fill="#EE4023" points="42.36,40.095 38.176,35.838 49.553,23.802 45.956,23.655 46.834,19.031 60.636,20.426 	"/>
	<rect x="27.826" y="27.325" fill="#231F20" width="7.707" height="7.926"/>
</g>
<path fill="#58595B" d="M83.484,15.507c0.707-0.373,1.317-0.753,1.83-1.14c0.513-0.387,0.95-0.793,1.31-1.22
	c0.347-0.426,0.623-0.873,0.83-1.34c0.207-0.466,0.35-0.966,0.43-1.5h-3.5v-1.84h3.78v-1.76h2.08v1.76h3.66v1.84h-3.52
	c0,0.8,0.346,1.62,1.04,2.46c0.693,0.84,1.82,1.62,3.38,2.34c-0.24,0.227-0.477,0.453-0.71,0.68s-0.463,0.454-0.69,0.68
	c-0.987-0.427-1.85-0.957-2.59-1.59c-0.74-0.633-1.29-1.31-1.65-2.03c-0.374,0.813-0.93,1.563-1.67,2.25
	c-0.74,0.687-1.61,1.277-2.61,1.77c-0.227-0.227-0.46-0.453-0.7-0.68C83.944,15.96,83.709,15.733,83.484,15.507z M98.404,21.527
	c0,0.64-0.134,1.227-0.4,1.76c-0.266,0.533-0.626,0.987-1.08,1.36c-0.467,0.374-1.01,0.664-1.63,0.87
	c-0.62,0.207-1.283,0.31-1.99,0.31c-0.693,0-1.347-0.1-1.96-0.3c-0.614-0.2-1.147-0.487-1.6-0.86c-0.467-0.373-0.833-0.827-1.1-1.36
	c-0.267-0.533-0.4-1.126-0.4-1.78c0-0.68,0.133-1.287,0.4-1.82s0.633-0.986,1.1-1.36c0.453-0.36,0.986-0.64,1.6-0.84
	c0.613-0.2,1.267-0.3,1.96-0.3c0.707,0,1.37,0.1,1.99,0.3c0.62,0.2,1.163,0.487,1.63,0.86c0.453,0.374,0.813,0.827,1.08,1.36
	C98.27,20.26,98.404,20.86,98.404,21.527z M96.344,21.527c0-0.373-0.08-0.713-0.24-1.02c-0.16-0.307-0.374-0.573-0.64-0.8
	c-0.28-0.213-0.603-0.376-0.97-0.49c-0.367-0.114-0.757-0.17-1.17-0.17c-0.414,0-0.804,0.057-1.17,0.17
	c-0.367,0.113-0.684,0.277-0.95,0.49c-0.28,0.213-0.5,0.474-0.66,0.78c-0.16,0.307-0.24,0.653-0.24,1.04
	c0,0.387,0.08,0.73,0.24,1.03c0.16,0.3,0.38,0.557,0.66,0.77c0.28,0.213,0.603,0.376,0.97,0.49c0.366,0.113,0.75,0.17,1.15,0.17
	s0.783-0.057,1.15-0.17c0.367-0.114,0.69-0.277,0.97-0.49c0.28-0.213,0.5-0.473,0.66-0.78C96.264,22.24,96.344,21.9,96.344,21.527z
	 M93.464,11.327h3.18v-4.5h2.06v9.98h-2.06v-3.64h-3.18V11.327z"/>
<path fill="#58595B" d="M112.206,14.967c1.2,0,2.42-0.043,3.659-0.13c1.24-0.087,2.527-0.217,3.86-0.39l0.18,1.68
	c-2.679,0.36-5.933,0.54-9.759,0.54v-9.08h2.061L112.206,14.967L112.206,14.967z M124.206,25.127h-11.761v-6.5h2.061v4.66h9.7
	V25.127z M117.666,11.747h4.3v-1.52h-4.3v-1.56h4.3v-1.84h2.08v12.2h-2.08v-5.72h-4.3V11.747z"/>
<path fill="#58595B" d="M143.3,11.907v3.06h8.859v1.84h-17.801v-1.84h6.86v-3.06H143.3z M149.278,7.607
	c0,1.307-0.039,2.487-0.119,3.54c-0.08,1.054-0.213,1.994-0.4,2.82l-1.92-0.32c0.121-0.746,0.213-1.47,0.281-2.17
	c0.066-0.7,0.1-1.376,0.1-2.03h-10v-1.84H149.278z M148.22,21.847c0,0.587-0.123,1.127-0.371,1.62
	c-0.246,0.493-0.59,0.913-1.029,1.26c-0.438,0.347-0.963,0.617-1.569,0.81c-0.606,0.193-1.277,0.29-2.011,0.29
	c-0.721,0-1.383-0.097-1.989-0.29c-0.606-0.193-1.13-0.463-1.57-0.81c-0.438-0.347-0.782-0.767-1.028-1.26
	c-0.246-0.493-0.371-1.033-0.371-1.62c0-0.56,0.121-1.083,0.36-1.57c0.24-0.487,0.58-0.91,1.021-1.27
	c0.438-0.36,0.963-0.646,1.57-0.86c0.604-0.213,1.274-0.32,2.01-0.32c0.731,0,1.406,0.097,2.02,0.29
	c0.613,0.193,1.141,0.463,1.58,0.81c0.439,0.347,0.781,0.771,1.02,1.271S148.22,21.247,148.22,21.847z M146.14,21.847
	c0-0.333-0.078-0.633-0.23-0.9c-0.153-0.267-0.356-0.5-0.608-0.7c-0.269-0.187-0.573-0.33-0.92-0.43
	c-0.349-0.1-0.722-0.15-1.121-0.15s-0.772,0.05-1.119,0.15c-0.348,0.1-0.653,0.243-0.92,0.43c-0.269,0.187-0.478,0.417-0.631,0.69
	c-0.151,0.273-0.229,0.577-0.229,0.91s0.078,0.63,0.229,0.89c0.153,0.26,0.362,0.483,0.631,0.67c0.267,0.187,0.572,0.33,0.92,0.43
	c0.347,0.1,0.72,0.15,1.119,0.15s0.772-0.05,1.121-0.15c0.347-0.1,0.651-0.244,0.92-0.43c0.252-0.188,0.455-0.413,0.608-0.68
	C146.062,22.46,146.14,22.167,146.14,21.847z"/>
<path fill="#58595B" d="M162.073,17.327c-0.229-0.253-0.441-0.51-0.641-0.77c-0.199-0.26-0.414-0.517-0.642-0.77
	c0.92-0.24,1.771-0.573,2.552-1c0.778-0.426,1.471-0.92,2.069-1.48s1.09-1.17,1.469-1.83c0.382-0.66,0.623-1.336,0.73-2.03h-6.142
	v-1.84h8.642c0,1.227-0.193,2.36-0.58,3.4c-0.388,1.04-0.935,1.973-1.642,2.8c-0.705,0.84-1.553,1.557-2.539,2.15
	C164.366,16.55,163.272,17.007,162.073,17.327z M175.292,25.127h-11.76v-6.5h2.061v4.66h9.699V25.127L175.292,25.127z
	 M174.993,13.646v5.38h-2.061v-12.2h2.061v4.98h2.898v1.84H174.993z"/>
<g>
	<path fill="#1D3855" d="M75.156,34.334c0-0.416,0.048-0.818,0.143-1.209c0.095-0.391,0.247-0.758,0.455-1.105
		c0.208-0.328,0.485-0.627,0.832-0.896c0.347-0.269,0.771-0.49,1.274-0.664c0.208-0.069,0.42-0.091,0.637-0.065
		c0.216,0.026,0.368,0.108,0.455,0.247c0.052,0.156,0.03,0.277-0.065,0.364c-0.095,0.086-0.195,0.156-0.299,0.207
		c-0.364,0.156-0.637,0.391-0.819,0.703s-0.204,0.58-0.065,0.807c0.485,0.086,0.875,0.308,1.17,0.662
		c0.294,0.355,0.442,0.758,0.442,1.209c0,0.537-0.199,0.992-0.598,1.365c-0.399,0.373-0.893,0.559-1.482,0.559
		c-0.364,0-0.68-0.063-0.949-0.194c-0.269-0.13-0.481-0.3-0.637-0.507c-0.173-0.209-0.299-0.442-0.377-0.702
		C75.195,34.854,75.156,34.594,75.156,34.334z"/>
	<path fill="#1D3855" d="M101.468,40.131h-6.214v1.301h9.803v3.12H81.916v-3.12h9.828v-1.301h-6.188v-8.449h15.652v3.12H89.066v2.21
		h12.402V40.131z M99.986,50.428c0,1.682-0.616,2.985-1.846,3.912c-1.231,0.928-2.791,1.393-4.68,1.393
		c-1.855,0-3.397-0.465-4.628-1.393c-1.231-0.927-1.846-2.23-1.846-3.912c0-1.543,0.615-2.82,1.846-3.835s2.773-1.521,4.628-1.521
		c1.889,0,3.449,0.463,4.68,1.391C99.37,47.391,99.986,48.711,99.986,50.428z M96.476,50.428c0-0.797-0.308-1.369-0.923-1.717
		c-0.615-0.346-1.305-0.52-2.067-0.52c-0.763,0-1.452,0.174-2.067,0.52c-0.616,0.348-0.923,0.92-0.923,1.717
		c0,0.764,0.308,1.317,0.923,1.664c0.615,0.348,1.304,0.52,2.067,0.52c0.762,0,1.452-0.172,2.067-0.52
		C96.168,51.745,96.476,51.189,96.476,50.428z"/>
	<path fill="#1D3855" d="M116.236,55.473v-8.19h-9.413v-3.119h22.724v3.119h-9.672v8.19H116.236z M126.115,31.941
		c0,4.541-0.285,8.008-0.857,10.399l-3.354-0.286c0.467-2.306,0.701-4.637,0.701-6.994h-12.09v-3.119H126.115z"/>
	<path fill="#1D3855" d="M150.867,40.131h-6.213v1.301h9.801v3.12h-23.139v-3.12h9.828v-1.301h-6.189v-8.449h15.652v3.12h-12.144
		v2.21h12.402L150.867,40.131L150.867,40.131z M149.385,50.428c0,1.682-0.615,2.985-1.846,3.912c-1.23,0.928-2.791,1.393-4.68,1.393
		c-1.855,0-3.396-0.465-4.627-1.393c-1.232-0.927-1.849-2.23-1.849-3.912c0-1.543,0.615-2.82,1.849-3.835
		c1.229-1.015,2.771-1.521,4.627-1.521c1.889,0,3.449,0.463,4.68,1.391S149.385,48.711,149.385,50.428z M145.875,50.428
		c0-0.797-0.307-1.369-0.922-1.717c-0.615-0.346-1.305-0.52-2.068-0.52c-0.762,0-1.451,0.174-2.066,0.52
		c-0.614,0.348-0.922,0.92-0.922,1.717c0,0.764,0.308,1.317,0.922,1.664c0.615,0.348,1.306,0.52,2.066,0.52
		c0.764,0,1.453-0.172,2.068-0.52C145.568,51.745,145.875,51.189,145.875,50.428z"/>
	<path fill="#1D3855" d="M161.086,41.354c3.051,0,6.291-0.233,9.725-0.701l0.285,2.964c-3.52,0.485-8.025,0.729-13.52,0.729v-7.723
		h7.93v-1.688h-7.93v-2.99h11.439v7.67h-7.931L161.086,41.354L161.086,41.354z M172.137,54.951v-5.979h-11.701v-3.121h15.211v9.101
		L172.137,54.951L172.137,54.951z M175.646,39.092v5.46h-3.51V31.031h3.51v4.939h3.51v3.12L175.646,39.092L175.646,39.092z"/>
	<path fill="#1D3855" d="M185.916,32.254c0,0.814-0.201,1.582-0.6,2.301c-0.399,0.719-1.101,1.244-2.105,1.572
		c-0.207,0.07-0.42,0.092-0.637,0.064c-0.217-0.026-0.369-0.107-0.455-0.246c-0.053-0.156-0.031-0.277,0.064-0.363
		c0.096-0.087,0.194-0.156,0.299-0.209c0.365-0.155,0.637-0.391,0.819-0.701c0.183-0.313,0.203-0.581,0.064-0.807
		c-0.486-0.086-0.875-0.307-1.171-0.662c-0.295-0.355-0.44-0.76-0.44-1.209c0-0.537,0.199-0.992,0.599-1.366
		c0.397-0.373,0.893-0.559,1.481-0.559c0.363,0,0.681,0.065,0.947,0.195c0.271,0.13,0.489,0.299,0.663,0.507
		c0.156,0.208,0.273,0.441,0.353,0.702C185.877,31.732,185.916,31.994,185.916,32.254z"/>
</g>
</svg>
